<?xml version="1.0" encoding="UTF-8"?>
<svg version="1.1" xmlns="http://www.w3.org/2000/svg" width="201" height="204">
<path d="M0 0 C3.61415347 3.06946528 7.00571318 6.32264378 10.36279297 9.66992188 C11.09111328 10.37503906 11.81943359 11.08015625 12.56982422 11.80664062 C27.45576503 27.22107637 34.81197681 49.75092166 34.72924805 70.84912109 C34.17044268 90.99703646 27.001058 109.05794742 14.36279297 124.66992188 C13.66669922 125.59289062 12.97060547 126.51585937 12.25341797 127.46679688 C11.62951172 128.19382813 11.00560547 128.92085937 10.36279297 129.66992188 C9.70279297 129.66992188 9.04279297 129.66992188 8.36279297 129.66992188 C8.03279297 130.65992188 7.70279297 131.64992187 7.36279297 132.66992188 C6.70279297 132.66992188 6.04279297 132.66992188 5.36279297 132.66992188 C5.36279297 133.32992187 5.36279297 133.98992187 5.36279297 134.66992188 C-1.62026087 140.76333709 -9.36015265 145.54951962 -17.63720703 149.66992188 C-18.8225 150.31380859 -18.8225 150.31380859 -20.03173828 150.97070312 C-41.7531725 162.01955864 -68.66485286 163.07880678 -91.63720703 155.66992188 C-96.06072679 154.18091195 -100.35869643 152.53388427 -104.63720703 150.66992188 C-105.49572266 150.30253906 -106.35423828 149.93515625 -107.23876953 149.55664062 C-114.41974011 146.23971612 -120.45108765 141.55038287 -126.63720703 136.66992188 C-128.21501953 135.49429688 -128.21501953 135.49429688 -129.82470703 134.29492188 C-147.01400575 118.2515764 -156.93248842 96.2847089 -158.95361328 73.02929688 C-159.42691097 58.67768951 -155.93696285 44.52731825 -149.63720703 31.66992188 C-149.19634766 30.74953125 -148.75548828 29.82914063 -148.30126953 28.88085938 C-144.63894088 21.69783909 -139.98069301 15.68363892 -134.63720703 9.66992188 C-134.01072266 8.95964844 -133.38423828 8.249375 -132.73876953 7.51757812 C-98.71177124 -28.73481457 -37.94538301 -30.82708718 0 0 Z M-110.63720703 12.66992188 C-112.85812146 25.62120244 -115.07553632 38.57306877 -117.28678131 51.52600384 C-118.3136693 57.54041895 -119.34209398 63.55456289 -120.37402344 69.56811523 C-121.36967113 75.37057444 -122.36129145 81.17370873 -123.35011292 86.97733498 C-123.72823981 89.19236631 -124.10782184 91.40714974 -124.48887634 93.62167931 C-125.02198189 96.7213467 -125.54992602 99.8218519 -126.07666016 102.92260742 C-126.23562271 103.8397049 -126.39458527 104.75680237 -126.55836487 105.70169067 C-126.70140549 106.5499794 -126.84444611 107.39826813 -126.99182129 108.27226257 C-127.11718513 109.005088 -127.24254898 109.73791342 -127.37171173 110.49294567 C-127.73808957 113.13160866 -127.73808957 113.13160866 -127.63720703 117.66992188 C-119.38720703 117.66992188 -111.13720703 117.66992188 -102.63720703 117.66992188 C-101.45719554 112.9498759 -100.38248263 108.63822264 -99.67578125 103.89648438 C-99.43575882 102.30574097 -99.43575882 102.30574097 -99.19088745 100.68286133 C-99.02621979 99.56484131 -98.86155212 98.44682129 -98.69189453 97.29492188 C-98.51715607 96.12985107 -98.3424176 94.96478027 -98.16238403 93.7644043 C-97.60866478 90.0667795 -97.06035785 86.36837583 -96.51220703 82.66992188 C-96.13626281 80.15294131 -95.75996452 77.63601361 -95.38330078 75.11914062 C-94.46383654 68.97000701 -93.54880693 62.82022601 -92.63720703 56.66992188 C-90.73764521 59.51926461 -89.58175443 62.05914543 -88.31469727 65.22705078 C-87.85759872 66.36477936 -87.40050018 67.50250793 -86.92955017 68.67471313 C-86.56684178 69.58452375 -86.56684178 69.58452375 -86.19680595 70.51271439 C-85.43915161 72.4131627 -84.67739289 74.31191914 -83.91456604 76.21029663 C-82.57229661 79.55262364 -81.23366776 82.89639458 -79.89624023 86.24066162 C-77.75253455 91.60104069 -75.60604033 96.96028922 -73.45439339 102.31748581 C-72.70269622 104.19179106 -71.95422219 106.06736197 -71.20591736 107.94302368 C-70.75197098 109.07444794 -70.2980246 110.20587219 -69.83032227 111.37158203 C-69.42998276 112.37291168 -69.02964325 113.37424133 -68.61717224 114.40591431 C-67.83431703 116.5954922 -67.83431703 116.5954922 -66.63720703 117.66992188 C-65.11792665 117.74172151 -63.59553221 117.75384195 -62.07470703 117.73242188 C-61.2910376 117.72138428 -60.50736816 117.71034668 -59.69995117 117.69897461 C-59.01924561 117.68938721 -58.33854004 117.6797998 -57.63720703 117.66992188 C-52.32796041 106.54688931 -47.63853471 95.18912569 -42.94970703 83.79492188 C-41.80889504 81.02952208 -40.66732674 78.26443589 -39.5254364 75.4994812 C-38.8212001 73.79353108 -38.1177113 72.08727211 -37.41511536 70.38064575 C-35.52510168 65.79430435 -33.60276502 61.22442117 -31.63720703 56.66992188 C-31.30720703 56.66992188 -30.97720703 56.66992188 -30.63720703 56.66992188 C-30.53920303 57.41938583 -30.44119904 58.16884979 -30.34022522 58.94102478 C-29.41765735 65.99031159 -28.49103511 73.03904772 -27.55980778 80.0871954 C-27.08115393 83.71107742 -26.60409271 87.33515453 -26.13061523 90.9597168 C-25.67396482 94.45501539 -25.21320423 97.94974932 -24.74954033 101.44412422 C-24.48688963 103.4319297 -24.22854293 105.42030232 -23.9702301 107.40867615 C-23.81013962 108.60984573 -23.65004913 109.81101532 -23.48510742 111.04858398 C-23.34520889 112.11225693 -23.20531036 113.17592987 -23.06117249 114.27183533 C-22.88317276 116.61502481 -22.88317276 116.61502481 -21.63720703 117.66992188 C-19.78351092 117.75729833 -17.92653162 117.77690341 -16.07080078 117.76757812 C-14.94609375 117.76435547 -13.82138672 117.76113281 -12.66259766 117.7578125 C-11.47859375 117.74943359 -10.29458984 117.74105469 -9.07470703 117.73242188 C-7.88683594 117.72791016 -6.69896484 117.72339844 -5.47509766 117.71875 C-2.52908235 117.70691861 0.41682264 117.6895971 3.36279297 117.66992188 C1.97899985 105.1555995 0.24682215 92.7149961 -1.64111328 80.26757812 C-1.92746552 78.36854676 -2.21367182 76.46949339 -2.4997406 74.57041931 C-3.093773 70.63138254 -3.68983755 66.69266018 -4.28735352 62.75415039 C-5.05377665 57.70087541 -5.81451096 52.64676206 -6.57373142 47.59240055 C-7.16066736 43.68968898 -7.75077476 39.78746208 -8.34184074 35.88537407 C-8.62396735 34.01994902 -8.90504609 32.15436518 -9.1850605 30.2886219 C-9.57412945 27.69915011 -9.96751096 25.11037008 -10.36206055 22.52172852 C-10.47688278 21.75146332 -10.59170502 20.98119812 -10.71000671 20.18759155 C-11.26863755 16.31016098 -11.26863755 16.31016098 -12.63720703 12.66992188 C-21.21720703 12.66992188 -29.79720703 12.66992188 -38.63720703 12.66992188 C-41.86841852 19.77858716 -44.98482215 26.82903686 -47.84423828 34.08007812 C-48.21449631 35.01420029 -48.58475433 35.94832245 -48.9662323 36.91075134 C-49.73808346 38.86043905 -50.50852516 40.81068531 -51.27758789 42.76147461 C-52.45987943 45.75820564 -53.64888312 48.75221608 -54.83837891 51.74609375 C-55.59073401 53.64892965 -56.34270155 55.55191885 -57.09423828 57.45507812 C-57.45040726 58.35082047 -57.80657623 59.24656281 -58.17353821 60.16944885 C-58.49775253 60.99468552 -58.82196686 61.81992218 -59.15600586 62.67016602 C-59.44292801 63.39643692 -59.72985016 64.12270782 -60.02546692 64.87098694 C-60.74452402 66.66882343 -60.74452402 66.66882343 -60.63720703 68.66992188 C-61.62720703 68.66992188 -62.61720703 68.66992188 -63.63720703 68.66992188 C-63.77666748 67.47858643 -63.77666748 67.47858643 -63.91894531 66.26318359 C-64.83557388 61.67754821 -66.43813721 57.5274725 -68.12939453 53.17773438 C-68.47600128 52.27296356 -68.82260803 51.36819275 -69.17971802 50.43600464 C-70.28526551 47.55358125 -71.39855607 44.67422283 -72.51220703 41.79492188 C-73.25361688 39.86673803 -73.99450762 37.93835449 -74.73486328 36.00976562 C-76.37696126 31.73331245 -78.02406756 27.4588258 -79.67575073 23.18606567 C-81.01280711 19.68697153 -82.32195188 16.17726895 -83.63720703 12.66992188 C-92.54720703 12.66992188 -101.45720703 12.66992188 -110.63720703 12.66992188 Z " fill="#E92424" transform="translate(162.63720703125,30.330078125)"/>
<path d="M0 0 C0.99 0.495 0.99 0.495 2 1 C2.5625 3.34375 2.5625 3.34375 3 6.5 C3.24556641 8.24216797 3.24556641 8.24216797 3.49609375 10.01953125 C4.16144327 15.15092547 4.75339261 20.29244538 5.30273438 25.4375 C5.68299059 29.34342852 5.68299059 29.34342852 7 33 C7.27024708 35.29924497 7.44497841 37.59801487 7.62109375 39.90625 C7.83318777 42.21311098 7.83318777 42.21311098 10 44 C12.65291757 44.17510386 15.19986174 44.23155483 17.8515625 44.1953125 C19.01261002 44.19106766 19.01261002 44.19106766 20.19711304 44.18673706 C22.67323157 44.17552754 25.1489905 44.15042203 27.625 44.125 C29.30207812 44.11497118 30.97916189 44.10584516 32.65625 44.09765625 C36.77097223 44.07558574 40.88542511 44.04105102 45 44 C45 45.98 45 47.96 45 50 C44.01 50.33 43.02 50.66 42 51 C42 52.32 42 53.64 42 55 C41.34 55 40.68 55 40 55 C40 55.66 40 56.32 40 57 C33.01694616 63.09341522 25.27705438 67.87959775 17 72 C15.81470703 72.64388672 15.81470703 72.64388672 14.60546875 73.30078125 C-7.11596547 84.34963677 -34.02764583 85.40888491 -57 78 C-61.42351975 76.51099007 -65.7214894 74.86396239 -70 73 C-71.28777344 72.44892578 -71.28777344 72.44892578 -72.6015625 71.88671875 C-81.47301348 67.7889533 -91.90127606 61.55857233 -97 53 C-97.22553101 50.31199254 -97.07747764 47.70341608 -97 45 C-96.0713916 45.01047363 -95.1427832 45.02094727 -94.18603516 45.03173828 C-90.7457431 45.06579204 -87.30562973 45.09088493 -83.86523438 45.10986328 C-82.3752968 45.11993043 -80.88537903 45.13358518 -79.39550781 45.15087891 C-77.25580972 45.17509653 -75.11637247 45.18647564 -72.9765625 45.1953125 C-71.68830566 45.20578613 -70.40004883 45.21625977 -69.07275391 45.22705078 C-65.89299194 45.32837664 -65.89299194 45.32837664 -64 43 C-62.46130873 39.00984053 -61.57569193 35.12124963 -60.9296875 30.90234375 C-60.75566406 29.77119141 -60.58164063 28.64003906 -60.40234375 27.47460938 C-60.22832031 26.30736328 -60.05429688 25.14011719 -59.875 23.9375 C-59.69324219 22.76638672 -59.51148438 21.59527344 -59.32421875 20.38867188 C-58.33469392 14.34155078 -58.33469392 14.34155078 -58.07470703 8.24047852 C-58.05005371 7.50112061 -58.02540039 6.7617627 -58 6 C-56 4.1875 -56 4.1875 -54 3 C-51.71808653 5.83239653 -50.20953141 8.52081349 -48.84375 11.88671875 C-48.46089844 12.82580078 -48.07804687 13.76488281 -47.68359375 14.73242188 C-47.09771484 16.19518555 -47.09771484 16.19518555 -46.5 17.6875 C-45.91412109 19.12125977 -45.91412109 19.12125977 -45.31640625 20.58398438 C-38.4675943 37.49847448 -38.4675943 37.49847448 -39 43 C-34.50832172 44.19600901 -30.26730207 43.9185704 -25.6875 43.5625 C-24.94693359 43.51029297 -24.20636719 43.45808594 -23.44335938 43.40429688 C-21.62847291 43.27549848 -19.81416675 43.13856738 -18 43 C-17.78150391 41.329375 -17.78150391 41.329375 -17.55859375 39.625 C-17.06048237 36.392501 -16.48256101 34.79070307 -15 32 C-13.89442125 28.35809353 -12.88821158 24.70088157 -12 21 C-11.34 21 -10.68 21 -10 21 C-10 19.68 -10 18.36 -10 17 C-8.6875 15.5625 -8.6875 15.5625 -7 14 C-4.70079075 10.63961725 -3.7694783 7.95731697 -3 4 C-2.34 3.67 -1.68 3.34 -1 3 C-0.67 2.01 -0.34 1.02 0 0 Z " fill="#E21E1D" transform="translate(128,108)"/>
<path d="M0 0 C1.31218506 0.01981934 2.62437012 0.03963867 3.97631836 0.06005859 C4.67760361 0.06476166 5.37888885 0.06946472 6.10142517 0.0743103 C8.34067165 0.09565323 10.57754889 0.1522604 12.81616211 0.20849609 C14.32720754 0.22500318 15.8382782 0.23935127 17.34936523 0.25146484 C28.36029162 0.38681085 28.36029162 0.38681085 30.75366211 1.58349609 C31.11669922 3.44677734 31.11669922 3.44677734 31.28100586 5.89599609 C31.34940674 6.79850098 31.41780762 7.70100586 31.48828125 8.63085938 C31.55523193 9.60522949 31.62218262 10.57959961 31.69116211 11.58349609 C32.30581023 19.4232788 33.22970319 27.05744241 34.71386719 34.77709961 C35.69614383 39.96642607 36.23831985 45.09173848 36.54272461 50.36083984 C36.62246089 52.62168426 36.62246089 52.62168426 37.75366211 54.58349609 C38.02918023 57.33867726 38.19972452 60.09367281 38.37475586 62.85693359 C38.58333847 65.51342739 38.58333847 65.51342739 39.71044922 67.36816406 C42.00908612 72.24947256 42.16251615 78.03381669 42.87866211 83.33349609 C43.14694824 85.28775513 43.14694824 85.28775513 43.4206543 87.28149414 C44.62417853 96.49074692 45.16251165 105.31543827 44.75366211 114.58349609 C40.53683463 114.80070931 36.3196962 114.99753008 32.10107422 115.17553711 C30.6662456 115.23895047 29.23165138 115.307922 27.79736328 115.38256836 C25.73498424 115.48893543 23.67258688 115.57525324 21.60913086 115.65771484 C20.36800537 115.71531982 19.12687988 115.7729248 17.84814453 115.83227539 C14.75366211 115.58349609 14.75366211 115.58349609 12.88232422 114.43017578 C11.35633093 111.93339593 11.13906569 109.8706697 10.83959961 106.96240234 C10.71842773 105.8621875 10.59725586 104.76197266 10.47241211 103.62841797 C10.35897461 102.47921875 10.24553711 101.33001953 10.12866211 100.14599609 C9.88853102 97.87624634 9.64642471 95.60670447 9.40209961 93.33740234 C9.30074707 92.33008057 9.19939453 91.32275879 9.0949707 90.28491211 C8.80190373 87.96532269 8.32444586 85.84307864 7.75366211 83.58349609 C7.61436855 82.21672977 7.5100091 80.8460394 7.43725586 79.47412109 C7.39536133 78.72001953 7.3534668 77.96591797 7.31030273 77.18896484 C7.27098633 76.41166016 7.23166992 75.63435547 7.19116211 74.83349609 C7.14797852 74.04072266 7.10479492 73.24794922 7.06030273 72.43115234 C6.95463219 70.48211795 6.85368245 68.53282861 6.75366211 66.58349609 C5.76366211 66.58349609 4.77366211 66.58349609 3.75366211 66.58349609 C3.56803711 67.72818359 3.56803711 67.72818359 3.37866211 68.89599609 C2.75366211 71.58349609 2.75366211 71.58349609 0.75366211 74.58349609 C-0.2942429 77.95206524 -1.22081248 81.34411949 -2.14868164 84.74755859 C-2.5109082 85.68341797 -2.87313477 86.61927734 -3.24633789 87.58349609 C-4.73133789 88.07849609 -4.73133789 88.07849609 -6.24633789 88.58349609 C-6.24633789 89.90349609 -6.24633789 91.22349609 -6.24633789 92.58349609 C-6.90633789 92.58349609 -7.56633789 92.58349609 -8.24633789 92.58349609 C-8.37008789 93.26412109 -8.49383789 93.94474609 -8.62133789 94.64599609 C-9.33870639 98.01762803 -10.27056121 101.27669733 -11.24633789 104.58349609 C-11.48610352 105.45361328 -11.72586914 106.32373047 -11.97290039 107.22021484 C-12.22813477 108.12384766 -12.48336914 109.02748047 -12.74633789 109.95849609 C-12.98352539 110.81185547 -13.22071289 111.66521484 -13.46508789 112.54443359 C-14.24633789 114.58349609 -14.24633789 114.58349609 -16.24633789 115.58349609 C-18.71181191 115.86930631 -21.14809523 116.09533965 -23.62133789 116.27099609 C-24.29422852 116.3309375 -24.96711914 116.39087891 -25.66040039 116.45263672 C-32.51525118 116.94516045 -32.51525118 116.94516045 -35.24633789 114.58349609 C-36.15258789 111.86083984 -36.15258789 111.86083984 -36.74633789 108.52099609 C-37.56938945 104.43705006 -38.40729538 100.82427575 -40.24633789 97.08349609 C-42.00662057 93.46993468 -42.87723116 90.02083066 -43.68383789 86.08349609 C-44.77628109 80.89439089 -46.37206422 76.92124412 -49.25805664 72.48583984 C-50.24633789 70.58349609 -50.24633789 70.58349609 -50.24633789 66.58349609 C-51.23633789 66.91349609 -52.22633789 67.24349609 -53.24633789 67.58349609 C-53.3873291 68.6216748 -53.52832031 69.65985352 -53.67358398 70.72949219 C-54.20348071 74.62510781 -54.73750628 78.52014863 -55.27270508 82.41503906 C-55.50265216 84.09262222 -55.73151748 85.77035405 -55.95922852 87.44824219 C-57.15016492 96.21833967 -58.36047372 104.9296708 -60.24633789 113.58349609 C-60.90633789 113.25349609 -61.56633789 112.92349609 -62.24633789 112.58349609 C-63.67875815 105.14288197 -62.7956716 98.53402036 -61.59399414 91.11083984 C-61.41501083 89.94718399 -61.23602753 88.78352814 -61.05162048 87.58460999 C-60.48156603 83.89495092 -59.89546433 80.20805281 -59.30883789 76.52099609 C-58.91779869 74.00879188 -58.52781356 71.49642336 -58.13891602 68.98388672 C-57.18691344 62.84846901 -56.22174894 56.71523344 -55.24633789 50.58349609 C-54.25633789 50.58349609 -53.26633789 50.58349609 -52.24633789 50.58349609 C-44.32633789 70.38349609 -36.40633789 90.18349609 -28.24633789 110.58349609 C-25.27633789 110.58349609 -22.30633789 110.58349609 -19.24633789 110.58349609 C-18.95090088 109.86734131 -18.65546387 109.15118652 -18.35107422 108.41333008 C-10.38357496 89.10823068 -2.34054097 69.8357985 5.75366211 50.58349609 C6.74366211 50.58349609 7.73366211 50.58349609 8.75366211 50.58349609 C11.39366211 70.38349609 14.03366211 90.18349609 16.75366211 110.58349609 C25.00366211 110.91349609 33.25366211 111.24349609 41.75366211 111.58349609 C41.46015869 109.78436768 41.16665527 107.98523926 40.86425781 106.1315918 C37.69526393 86.63475363 34.65366868 67.12005266 31.67675781 47.59301758 C31.05220899 43.49654034 30.4250525 39.40046667 29.79726696 35.30448437 C29.30809955 32.11090614 28.82032143 28.91711693 28.33297157 25.72326088 C28.10176826 24.20928392 27.87011343 22.69537584 27.63799095 21.18153954 C27.31858915 19.09723462 27.00107736 17.01265058 26.68408203 14.92797852 C26.50374924 13.74684982 26.32341644 12.56572113 26.13761902 11.34880066 C25.75366211 8.58349609 25.75366211 8.58349609 25.75366211 6.58349609 C17.17366211 6.91349609 8.59366211 7.24349609 -0.24633789 7.58349609 C-7.50633789 25.73349609 -14.76633789 43.88349609 -22.24633789 62.58349609 C-23.23633789 62.58349609 -24.22633789 62.58349609 -25.24633789 62.58349609 C-25.43790466 62.06699493 -25.62947144 61.55049377 -25.82684326 61.01834106 C-27.83722236 55.59873808 -29.84938739 50.17980053 -31.86254883 44.76123047 C-32.61169672 42.74414493 -33.36040281 40.72689524 -34.10864258 38.70947266 C-35.18981124 35.79464193 -36.27261505 32.88042294 -37.35571289 29.96630859 C-37.68504822 29.07734894 -38.01438354 28.18838928 -38.35369873 27.27249146 C-40.3024694 22.03482532 -42.34229392 16.85109737 -44.50811768 11.69894409 C-45.24633789 9.58349609 -45.24633789 9.58349609 -45.24633789 6.58349609 C-54.15633789 6.58349609 -63.06633789 6.58349609 -72.24633789 6.58349609 C-72.57633789 10.21349609 -72.90633789 13.84349609 -73.24633789 17.58349609 C-73.7379656 20.88819222 -74.25633247 24.17124784 -74.82861328 27.46118164 C-74.98481644 28.37962357 -75.14101959 29.29806549 -75.30195618 30.24433899 C-75.81194628 33.23700096 -76.32790898 36.22859851 -76.84399414 39.22021484 C-77.20166068 41.31193292 -77.55894941 43.40371562 -77.9158783 45.49555969 C-78.85082235 50.96890106 -79.7908574 56.44135588 -80.73199463 61.91363525 C-81.6936583 67.51073964 -82.65045035 73.1086765 -83.60766602 78.70654297 C-85.48248584 89.66634387 -87.36314093 100.62513151 -89.24633789 111.58349609 C-80.66633789 111.58349609 -72.08633789 111.58349609 -63.24633789 111.58349609 C-63.24633789 111.91349609 -63.24633789 112.24349609 -63.24633789 112.58349609 C-72.48633789 112.58349609 -81.72633789 112.58349609 -91.24633789 112.58349609 C-92.32591167 109.34477477 -92.37960573 106.92321404 -92.37133789 103.52099609 C-92.37391602 102.45751953 -92.37649414 101.39404297 -92.37915039 100.29833984 C-92.24633789 97.58349609 -92.24633789 97.58349609 -91.24633789 95.58349609 C-91.06321272 93.23193635 -90.92438995 90.87684324 -90.80883789 88.52099609 C-89.94801576 73.28517397 -89.94801576 73.28517397 -87.24633789 70.58349609 C-86.86224552 68.45710747 -86.53508144 66.32040813 -86.23071289 64.18115234 C-86.03200589 62.81393777 -85.8331042 61.44675147 -85.6340332 60.07958984 C-85.53014282 59.35626465 -85.42625244 58.63293945 -85.31921387 57.88769531 C-83.48722493 45.16835888 -81.41962372 32.54308761 -78.85864258 19.94702148 C-77.69118127 14.16082722 -76.80497546 8.46133486 -76.24633789 2.58349609 C-71.58326775 2.5341233 -66.92034916 2.49778982 -62.25708008 2.47363281 C-60.67013906 2.46356421 -59.08321664 2.44990842 -57.49633789 2.43261719 C-55.21764542 2.40840608 -52.93919784 2.39702187 -50.66040039 2.38818359 C-49.94888824 2.37786102 -49.2373761 2.36753845 -48.50430298 2.35690308 C-46.75002124 2.35650188 -44.9963708 2.46147401 -43.24633789 2.58349609 C-40.53242749 5.2974065 -39.85732943 8.44225668 -38.74633789 12.02099609 C-37.55422678 15.8393641 -36.49051852 19.21722515 -34.24633789 22.58349609 C-34.12133789 25.77099609 -34.12133789 25.77099609 -34.24633789 28.58349609 C-33.58633789 28.58349609 -32.92633789 28.58349609 -32.24633789 28.58349609 C-32.05297852 29.20998047 -31.85961914 29.83646484 -31.66040039 30.48193359 C-31.40000977 31.29919922 -31.13961914 32.11646484 -30.87133789 32.95849609 C-30.61610352 33.77060547 -30.36086914 34.58271484 -30.09790039 35.41943359 C-29.34779506 37.74808794 -29.34779506 37.74808794 -27.24633789 39.58349609 C-26.39092388 42.15401521 -25.71896865 44.74967195 -25.02758789 47.36865234 C-24.47247543 49.75989701 -24.47247543 49.75989701 -22.24633789 50.58349609 C-22.11356445 49.86806641 -21.98079102 49.15263672 -21.84399414 48.41552734 C-21.25860254 45.64161288 -20.51475345 42.98050335 -19.68383789 40.27099609 C-19.41442383 39.38798828 -19.14500977 38.50498047 -18.86743164 37.59521484 C-18.6624707 36.93134766 -18.45750977 36.26748047 -18.24633789 35.58349609 C-17.58633789 35.58349609 -16.92633789 35.58349609 -16.24633789 35.58349609 C-15.84415039 34.06755859 -15.84415039 34.06755859 -15.43383789 32.52099609 C-14.35324165 28.72368959 -12.80937778 25.20974864 -11.24633789 21.58349609 C-9.7342245 17.37652716 -8.39830158 13.15335992 -7.24633789 8.83349609 C-4.79343803 0.86157155 -4.79343803 0.86157155 0 0 Z " fill="#AA2D35" transform="translate(124.246337890625,36.41650390625)"/>
<path d="M0 0 C0.99 0 1.98 0 3 0 C3.433125 1.216875 3.86625 2.43375 4.3125 3.6875 C5.25130759 6.22806463 6.13875696 8.21347225 7.625 10.5 C9.54482712 13.99059476 9.66467199 17.04312954 10 21 C7.1673866 19.5836933 6.98292167 17.85502707 5.875 14.9375 C5.52179688 14.01839844 5.16859375 13.09929687 4.8046875 12.15234375 C4.40636719 11.08693359 4.40636719 11.08693359 4 10 C3.01 10 2.02 10 1 10 C-0.79138149 11.79138149 -0.25921389 14.57400526 -0.375 17 C-0.74938037 22.71515035 -1.40646454 28.29289025 -2.375 33.9375 C-2.4889209 34.63423828 -2.6028418 35.33097656 -2.72021484 36.04882812 C-2.90124756 37.05913086 -2.90124756 37.05913086 -3.0859375 38.08984375 C-3.2413501 38.96950806 -3.2413501 38.96950806 -3.39990234 39.86694336 C-4.29554433 43.05051701 -5.66035905 45.9773076 -7 49 C-11.5206665 49.02468857 -16.0412939 49.04285449 -20.56201172 49.05493164 C-22.10043013 49.05996552 -23.63884375 49.06679308 -25.17724609 49.07543945 C-27.38640526 49.08754639 -29.59550126 49.09323769 -31.8046875 49.09765625 C-32.83914505 49.10539818 -32.83914505 49.10539818 -33.89450073 49.11329651 C-38.77225659 49.11387171 -38.77225659 49.11387171 -41 48 C-41.24615385 32.49230769 -41.24615385 32.49230769 -39 28 C-38.77532169 26.46331135 -38.59203195 24.92031946 -38.4375 23.375 C-38.35371094 22.55773437 -38.26992188 21.74046875 -38.18359375 20.8984375 C-38.12300781 20.27195312 -38.06242187 19.64546875 -38 19 C-37.67 19 -37.34 19 -37 19 C-36.97301811 20.62490954 -36.95361243 22.24994633 -36.9375 23.875 C-36.92589844 24.77992187 -36.91429687 25.68484375 -36.90234375 26.6171875 C-37 29 -37 29 -38 31 C-38.07173806 33.55387492 -38.09287732 36.07276761 -38.0625 38.625 C-38.041875 41.05875 -38.02125 43.4925 -38 46 C-29.09 45.67 -20.18 45.34 -11 45 C-11 44.34 -11 43.68 -11 43 C-10.34 43 -9.68 43 -9 43 C-8.34 44.32 -7.68 45.64 -7 47 C-6.8865625 45.73285156 -6.773125 44.46570313 -6.65625 43.16015625 C-5.91124324 35.72189338 -4.87028013 28.32319856 -3.84326172 20.91967773 C-3.49654731 18.41253308 -3.15640814 15.90454709 -2.81640625 13.39648438 C-2.5967536 11.80463233 -2.37671593 10.21283336 -2.15625 8.62109375 C-2.05517944 7.87016953 -1.95410889 7.1192453 -1.84997559 6.3455658 C-1.11437738 1.11437738 -1.11437738 1.11437738 0 0 Z " fill="#D5272A" transform="translate(71,103)"/>
<path d="M0 0 C0.33 0 0.66 0 1 0 C1.33 3.63 1.66 7.26 2 11 C1.34 10.34 0.68 9.68 0 9 C0 7.68 0 6.36 0 5 C-0.99 5.33 -1.98 5.66 -3 6 C-3.14099121 7.03817871 -3.28198242 8.07635742 -3.42724609 9.14599609 C-3.95714282 13.04161172 -4.49116839 16.93665254 -5.02636719 20.83154297 C-5.25631427 22.50912612 -5.48517959 24.18685796 -5.71289062 25.86474609 C-6.90382703 34.63484358 -8.11413583 43.3461747 -10 52 C-10.66 51.67 -11.32 51.34 -12 51 C-13.57795203 43.09345315 -12.44443769 35.77985498 -11.25 27.875 C-11.07984375 26.63878906 -10.9096875 25.40257812 -10.734375 24.12890625 C-9.8293151 17.93323888 -8.79261848 12.60857361 -6 7 C-5.30859478 4.22111387 -5.30859478 4.22111387 -5 2 C-3.35 2.33 -1.7 2.66 0 3 C0 2.01 0 1.02 0 0 Z " fill="#B32F37" transform="translate(74,98)"/>
<path d="M0 0 C0.66 0 1.32 0 2 0 C5.94762796 5.68458426 6.14022557 10.48189645 6.0625 17.25 C6.05798828 17.99507812 6.05347656 18.74015625 6.04882812 19.5078125 C6.03709246 21.3385764 6.0191585 23.16929873 6 25 C1.78317252 25.21721322 -2.43396591 25.41403398 -6.65258789 25.59204102 C-8.08741651 25.65545437 -9.52201073 25.72442591 -10.95629883 25.79907227 C-13.01867787 25.90543934 -15.08107523 25.99175714 -17.14453125 26.07421875 C-18.38565674 26.13182373 -19.62678223 26.18942871 -20.90551758 26.2487793 C-24 26 -24 26 -25.91015625 24.62304688 C-27.9274035 21.61886683 -27.17268532 18.51126826 -27 15 C-26.67 15 -26.34 15 -26 15 C-25.67 17.64 -25.34 20.28 -25 23 C-24.34 23 -23.68 23 -23 23 C-22.67 22.34 -22.34 21.68 -22 21 C-13.75 21.33 -5.5 21.66 3 22 C2.01754936 16.62959707 2.01754936 16.62959707 1.02539062 11.26098633 C0.34231896 7.46027079 -0.18664164 3.88059083 0 0 Z " fill="#9F232B" transform="translate(163,126)"/>
<path d="M0 0 C0.99 0 1.98 0 3 0 C4.05026698 3.15080093 4.20961265 5.62581523 4.375 8.9375 C4.82798135 15.96601707 5.79186101 22.85279604 6.89599609 29.80639648 C7.02312988 30.60891846 7.15026367 31.41144043 7.28125 32.23828125 C7.40757812 33.02283691 7.53390625 33.80739258 7.6640625 34.61572266 C8.11148585 37.79125784 8.34462325 40.97624297 8.54101562 44.17651367 C8.88592227 46.40890855 8.88592227 46.40890855 12 48 C15.10479949 48.27710363 15.10479949 48.27710363 18.63671875 48.1953125 C19.93544922 48.18886719 21.23417969 48.18242187 22.57226562 48.17578125 C23.94401307 48.1590706 25.31575786 48.14214071 26.6875 48.125 C28.07095718 48.11496674 29.45442127 48.10584149 30.83789062 48.09765625 C34.22543452 48.07404967 37.61263072 48.04112037 41 48 C41 44.04 41 40.08 41 36 C41.33 36 41.66 36 42 36 C42 40.29 42 44.58 42 49 C37.49829798 49.21715569 32.99633843 49.41398879 28.49291992 49.59204102 C26.96110301 49.65546794 25.42950532 49.72444183 23.89819336 49.79907227 C21.69679322 49.90539597 19.49537513 49.99173827 17.29296875 50.07421875 C16.26625313 50.1302552 16.26625313 50.1302552 15.21879578 50.18742371 C10.46987158 50.33756031 10.46987158 50.33756031 8.07177734 48.61474609 C6.75165877 46.62584764 6.57120571 45.31401113 6.4375 42.9375 C6.18119754 39.72859319 5.76879692 36.70280477 5.0625 33.5625 C3.85073758 27.83827903 3.28371902 22.05936588 2.69750977 16.24438477 C2.62072998 15.49600342 2.5439502 14.74762207 2.46484375 13.9765625 C2.36610962 12.97230225 2.36610962 12.97230225 2.26538086 11.94775391 C1.98816517 9.91313869 1.53284622 7.98166864 1 6 C0.71125 6.5775 0.4225 7.155 0.125 7.75 C-0.24625 8.4925 -0.6175 9.235 -1 10 C-1.33 10.721875 -1.66 11.44375 -2 12.1875 C-3 14 -3 14 -5 15 C-4.5188509 9.22621075 -2.81532819 5.04140164 0 0 Z " fill="#CE2527" transform="translate(128,103)"/>
<path d="M0 0 C1.56210112 4.06053586 0.54202809 7.91340311 -0.21484375 12.046875 C-0.34943497 12.81807678 -0.48402618 13.58927856 -0.62269592 14.3838501 C-1.05328042 16.84066058 -1.49522575 19.29526978 -1.9375 21.75 C-2.23187164 23.41783622 -2.52550017 25.08580379 -2.81835938 26.75390625 C-3.535585 30.83782551 -4.26814267 34.91856955 -5 39 C3.58 39 12.16 39 21 39 C21 39.33 21 39.66 21 40 C11.76 40 2.52 40 -7 40 C-9.43974056 32.68077833 -8.629288 23.23865708 -6 16 C-5.34 15.34 -4.68 14.68 -4 14 C-3.61314253 11.93063831 -3.61314253 11.93063831 -3.5 9.625 C-3.25327833 5.93651098 -2.71354587 2.71354587 0 0 Z " fill="#9E2930" transform="translate(40,109)"/>
<path d="M0 0 C2.92044623 5.68655993 3.36134377 9.70378504 2 16 C1.195625 16.144375 0.39125 16.28875 -0.4375 16.4375 C-2.92103706 16.74135249 -2.92103706 16.74135249 -4 18 C-4.04658421 20.16616582 -4.03767546 22.33366092 -4 24.5 C-3.96232454 26.66633908 -3.95341579 28.83383418 -4 31 C-4.33 31.33 -4.66 31.66 -5 32 C-5.23678716 34.69235776 -5.42198025 37.36498156 -5.5625 40.0625 C-5.60568359 40.82111328 -5.64886719 41.57972656 -5.69335938 42.36132812 C-5.79973633 44.24065438 -5.90039934 46.12030244 -6 48 C-6.33 48 -6.66 48 -7 48 C-10.64207152 32.21769009 -6.82549525 14.44971868 0 0 Z " fill="#E33232" transform="translate(12,64)"/>
<path d="M0 0 C0.33 0 0.66 0 1 0 C1.02698189 1.62490954 1.04638757 3.24994633 1.0625 4.875 C1.07410156 5.77992187 1.08570313 6.68484375 1.09765625 7.6171875 C1 10 1 10 0 12 C-0.07173806 14.55387492 -0.09287732 17.07276761 -0.0625 19.625 C-0.041875 22.05875 -0.02125 24.4925 0 27 C8.91 26.67 17.82 26.34 27 26 C27 25.34 27 24.68 27 24 C27.66 24 28.32 24 29 24 C29.495 25.485 29.495 25.485 30 27 C29.67 27.66 29.34 28.32 29 29 C22.56655362 30.1847139 16.14972578 30.15092606 9.625 30.125 C8.62855469 30.12886719 7.63210937 30.13273437 6.60546875 30.13671875 C5.65542969 30.13542969 4.70539062 30.13414062 3.7265625 30.1328125 C2.86627441 30.13168457 2.00598633 30.13055664 1.11962891 30.12939453 C-1 30 -1 30 -3 29 C-3.24615385 13.49230769 -3.24615385 13.49230769 -1 9 C-0.77532169 7.46331135 -0.59203195 5.92031946 -0.4375 4.375 C-0.35371094 3.55773437 -0.26992188 2.74046875 -0.18359375 1.8984375 C-0.12300781 1.27195312 -0.06242187 0.64546875 0 0 Z " fill="#C02A2E" transform="translate(33,122)"/>
<path d="M0 0 C1.9375 1.125 1.9375 1.125 4 3 C4.625 5.9375 4.625 5.9375 5 9 C5.350625 9.70125 5.70125 10.4025 6.0625 11.125 C7 13 7 13 7 17 C7.66 17 8.32 17 9 17 C10.25664978 19.90600261 11 21.79604584 11 25 C13.31309705 24.88658363 15.62550185 24.75896193 17.9375 24.625 C19.86916016 24.52058594 19.86916016 24.52058594 21.83984375 24.4140625 C22.88269531 24.27742188 23.92554688 24.14078125 25 24 C25.33 23.34 25.66 22.68 26 22 C26.99 22 27.98 22 29 22 C29 20.68 29 19.36 29 18 C29.66 18 30.32 18 31 18 C30.71872579 19.48117801 30.42466268 20.95993249 30.125 22.4375 C29.96257812 23.26121094 29.80015625 24.08492187 29.6328125 24.93359375 C29.42398438 25.61550781 29.21515625 26.29742187 29 27 C26.02075014 28.48962493 22.89830725 28.45502079 19.625 28.6875 C18.95210937 28.74744141 18.27921875 28.80738281 17.5859375 28.86914062 C10.73108671 29.36166435 10.73108671 29.36166435 8 27 C7.09375 24.27734375 7.09375 24.27734375 6.5 20.9375 C5.47654184 15.84832618 4.09986329 11.53855253 1.8515625 6.87890625 C0.83251446 4.63045622 0.31545049 2.44474126 0 0 Z " fill="#C9282C" transform="translate(81,124)"/>
<path d="M0 0 C1.875 1 1.875 1 4 3 C4.56019697 4.87830747 5.10508662 6.76534677 5.5078125 8.68359375 C7.83878736 20.30878514 7.83878736 20.30878514 15 29 C15.9140625 31.93359375 15.9140625 31.93359375 16.625 35.4375 C17.62419646 40.26919954 17.62419646 40.26919954 19 45 C19 45.99 19 46.98 19 48 C18.34 48 17.68 48 17 48 C14.57199443 41.64887336 12.15170874 35.29484488 9.73681641 28.9387207 C8.9140568 26.77593157 8.08951972 24.61381776 7.26318359 22.45239258 C6.07704325 19.34891974 4.89727643 16.24308958 3.71875 13.13671875 C3.34689575 12.16788254 2.9750415 11.19904633 2.59191895 10.20085144 C2.25156616 9.3001442 1.91121338 8.39943695 1.56054688 7.47143555 C1.2585437 6.67867722 0.95654053 5.88591888 0.64538574 5.06913757 C0 3 0 3 0 0 Z " fill="#9D2931" transform="translate(81,48)"/>
<path d="M0 0 C0.66 0 1.32 0 2 0 C2.66 2.31 3.32 4.62 4 7 C4.66 7 5.32 7 6 7 C6.19335938 7.62648438 6.38671875 8.25296875 6.5859375 8.8984375 C6.84632812 9.71570313 7.10671875 10.53296875 7.375 11.375 C7.63023438 12.18710938 7.88546875 12.99921875 8.1484375 13.8359375 C8.89854283 16.16459185 8.89854283 16.16459185 11 18 C11.85541401 20.57051911 12.52736924 23.16617586 13.21875 25.78515625 C13.77386246 28.17640092 13.77386246 28.17640092 16 29 C16.12375 28.278125 16.2475 27.55625 16.375 26.8125 C16.9904931 24.04278106 17.88444374 21.6029646 19 19 C19.99 19.33 20.98 19.66 22 20 C21.30908835 21.83091588 20.61793885 23.66174227 19.92578125 25.4921875 C19.25742659 27.30266722 18.61176119 29.12157879 17.98046875 30.9453125 C17.63628906 31.93273437 17.29210937 32.92015625 16.9375 33.9375 C16.45603516 35.34322266 16.45603516 35.34322266 15.96484375 36.77734375 C15 39 15 39 13 40 C13.04125 38.96875 13.0825 37.9375 13.125 36.875 C13.00137832 33.04272781 12.31000615 30.56612786 11 27 C10.56078144 24.98037896 10.1411717 22.96067561 9.7578125 20.9296875 C9.08146857 18.8216977 9.08146857 18.8216977 7.06640625 17.1015625 C4.67748572 14.67199871 3.8931538 12.71108557 2.8125 9.5 C2.48894531 8.5615625 2.16539063 7.623125 1.83203125 6.65625 C1.14003002 4.44704419 0.52615045 2.25341205 0 0 Z " fill="#AD333D" transform="translate(86,58)"/>
<path d="M0 0 C0.66 0.33 1.32 0.66 2 1 C2.50244141 3.50024414 2.50244141 3.50024414 2.8515625 6.78515625 C2.98046875 7.95498047 3.109375 9.12480469 3.2421875 10.33007812 C3.36851562 11.56177734 3.49484375 12.79347656 3.625 14.0625 C3.7590625 15.29806641 3.893125 16.53363281 4.03125 17.80664062 C4.36245684 20.87030388 4.68497255 23.9346377 5 27 C4.34 27.33 3.68 27.66 3 28 C2.66365624 26.06302033 2.33102835 24.12539514 2 22.1875 C1.814375 21.10855469 1.62875 20.02960938 1.4375 18.91796875 C1 16 1 16 1 13 C-0.65 13 -2.3 13 -4 13 C-4.66 14.98 -5.32 16.96 -6 19 C-6.66 18.67 -7.32 18.34 -8 18 C-6.85718854 15.18623705 -5.71091259 12.37397584 -4.5625 9.5625 C-4.23701172 8.76005859 -3.91152344 7.95761719 -3.57617188 7.13085938 C-3.10727539 5.98520508 -3.10727539 5.98520508 -2.62890625 4.81640625 C-2.34088135 4.10943604 -2.05285645 3.40246582 -1.75610352 2.67407227 C-1 1 -1 1 0 0 Z " fill="#99313A" transform="translate(131,86)"/>
<path d="M0 0 C0.70744354 0.00141495 1.41488708 0.0028299 2.14376831 0.00428772 C4.40578419 0.00989025 6.66770148 0.02244307 8.9296875 0.03515625 C10.46223815 0.04017093 11.99479036 0.04473389 13.52734375 0.04882812 C17.28649638 0.05986048 21.04557522 0.07712673 24.8046875 0.09765625 C25.4646875 1.41765625 26.1246875 2.73765625 26.8046875 4.09765625 C26.1446875 3.76765625 25.4846875 3.43765625 24.8046875 3.09765625 C22.32636091 2.94139049 19.87157419 2.83952427 17.390625 2.78125 C16.66098541 2.7604689 15.93134583 2.73968781 15.17959595 2.71827698 C12.84638987 2.65283708 10.51307029 2.59392257 8.1796875 2.53515625 C6.59894655 2.49196572 5.01821711 2.44835126 3.4375 2.40429688 C-0.43998754 2.29716144 -4.31758935 2.19587843 -8.1953125 2.09765625 C-8.164375 3.40605469 -8.1334375 4.71445312 -8.1015625 6.0625 C-8.1015625 10.74685272 -8.74359583 15.08591443 -9.6953125 19.66015625 C-9.83839844 20.38267578 -9.98148438 21.10519531 -10.12890625 21.84960938 C-10.47676291 23.60048788 -10.83491831 25.34931537 -11.1953125 27.09765625 C-11.5253125 27.09765625 -11.8553125 27.09765625 -12.1953125 27.09765625 C-12.24972906 25.20214603 -12.28829285 23.30617705 -12.3203125 21.41015625 C-12.34351563 20.35441406 -12.36671875 19.29867187 -12.390625 18.2109375 C-12.19141942 15.0356006 -11.43013742 12.99619566 -10.1953125 10.09765625 C-9.85834321 7.72355443 -9.69745115 5.37994986 -9.5390625 2.98828125 C-9.425625 2.364375 -9.3121875 1.74046875 -9.1953125 1.09765625 C-6.23720774 -0.38139613 -3.240597 -0.02425278 0 0 Z " fill="#DA2E31" transform="translate(56.1953125,36.90234375)"/>
<path d="M0 0 C0.33 0 0.66 0 1 0 C1.20496094 1.12019531 1.40992188 2.24039063 1.62109375 3.39453125 C1.89311689 4.86720824 2.16525849 6.33986336 2.4375 7.8125 C2.63956055 8.91948242 2.63956055 8.91948242 2.84570312 10.04882812 C3.41419737 13.11315076 4.01309651 16.03928953 5 19 C5.35543427 21.33006911 5.6913753 23.66327016 6 26 C6.66 26 7.32 26 8 26 C7.79375 26.78375 7.5875 27.5675 7.375 28.375 C7.189375 29.674375 7.189375 29.674375 7 31 C7.66 31.66 8.32 32.32 9 33 C9 36 9 36 8 39 C8.3267961 41.33425788 8.66140041 43.66742506 9 46 C9.08591666 49.0023098 9.06127844 51.99735632 9 55 C8.67 55 8.34 55 8 55 C7.88930176 54.14245117 7.77860352 53.28490234 7.66455078 52.40136719 C7.24909176 49.2099848 6.82716502 46.01954262 6.40087891 42.82958984 C6.21795485 41.4506986 6.03758739 40.07146563 5.85986328 38.69189453 C5.60346516 36.7051672 5.33700423 34.71974676 5.0703125 32.734375 C4.91320801 31.54038086 4.75610352 30.34638672 4.59423828 29.11621094 C4.06046607 26.31708664 3.34789321 24.46466006 2 22 C1.62109375 19.2734375 1.62109375 19.2734375 1.4375 16.375 C1.25661545 12.54278845 1.25661545 12.54278845 0 9 C-0.06950541 7.45976004 -0.08452357 5.91665012 -0.0625 4.375 C-0.05347656 3.55773437 -0.04445312 2.74046875 -0.03515625 1.8984375 C-0.02355469 1.27195312 -0.01195312 0.64546875 0 0 Z " fill="#D42224" transform="translate(160,80)"/>
<path d="M0 0 C2.0703125 3.7421875 2.0703125 3.7421875 1.4375 6.0625 C0 8 0 8 -2.4375 9.4375 C-5.43499026 11.26523796 -6.32967627 12.96304776 -8 16 C-9.5625 17.8125 -9.5625 17.8125 -11 19 C-11.66 19 -12.32 19 -13 19 C-13.33 20.98 -13.66 22.96 -14 25 C-14.99 25.33 -15.98 25.66 -17 26 C-13.89663074 15.71067377 -7.31060589 7.69037763 0 0 Z " fill="#E82F2D" transform="translate(30,38)"/>
<path d="M0 0 C0.33 0 0.66 0 1 0 C1.33 2.64 1.66 5.28 2 8 C2.66 8 3.32 8 4 8 C4.33 7.34 4.66 6.68 5 6 C5 6.66 5 7.32 5 8 C13.91 8 22.82 8 32 8 C32.33 7.01 32.66 6.02 33 5 C33 6.65 33 8.3 33 10 C28.78317252 10.21721322 24.56603409 10.41403398 20.34741211 10.59204102 C18.91258349 10.65545437 17.47798927 10.72442591 16.04370117 10.79907227 C13.98132213 10.90543934 11.91892477 10.99175714 9.85546875 11.07421875 C8.61434326 11.13182373 7.37321777 11.18942871 6.09448242 11.2487793 C3 11 3 11 1.08984375 9.62304688 C-0.9274035 6.61886683 -0.17268532 3.51126826 0 0 Z " fill="#B6272C" transform="translate(136,141)"/>
<path d="M0 0 C0 3.63 0 7.26 0 11 C-0.66 10.67 -1.32 10.34 -2 10 C-2.33 7.36 -2.66 4.72 -3 2 C-11.58 2 -20.16 2 -29 2 C-29 1.34 -29 0.68 -29 0 C-24.72953289 -0.19656362 -20.45861919 -0.38070249 -16.1875 -0.5625 C-14.97255859 -0.61857422 -13.75761719 -0.67464844 -12.50585938 -0.73242188 C-11.34248047 -0.78076172 -10.17910156 -0.82910156 -8.98046875 -0.87890625 C-7.90692139 -0.9260376 -6.83337402 -0.97316895 -5.72729492 -1.02172852 C-3 -1 -3 -1 0 0 Z " fill="#932E36" transform="translate(153,41)"/>
<path d="M0 0 C1.65 0 3.3 0 5 0 C5.20496094 0.96421875 5.40992188 1.9284375 5.62109375 2.921875 C5.89050781 4.18515625 6.15992188 5.4484375 6.4375 6.75 C6.83775391 8.62945312 6.83775391 8.62945312 7.24609375 10.546875 C7.7916235 13.04557085 8.35638812 15.52553101 9 18 C8.34 18.33 7.68 18.66 7 19 C4.73045369 15.59568053 4.63450051 13.83475798 4.375 9.8125 C4.30023438 8.72582031 4.22546875 7.63914062 4.1484375 6.51953125 C4.09945312 5.68808594 4.05046875 4.85664062 4 4 C3.01 4 2.02 4 1 4 C0.87625 4.763125 0.7525 5.52625 0.625 6.3125 C0 9 0 9 -2 12 C-2.66 12 -3.32 12 -4 12 C-3.814375 11.38125 -3.62875 10.7625 -3.4375 10.125 C-2.76313824 7.95839822 -2.76313824 7.95839822 -4 6 C-3.34 6 -2.68 6 -2 6 C-1.7834375 5.071875 -1.7834375 5.071875 -1.5625 4.125 C-1 2 -1 2 0 0 Z " fill="#AE2F38" transform="translate(127,99)"/>
<path d="M0 0 C0.66 0 1.32 0 2 0 C-0.11644743 6.64168611 -2.5673908 13.10461783 -5.1875 19.5625 C-5.55552734 20.47580078 -5.92355469 21.38910156 -6.30273438 22.33007812 C-7.19943546 24.55436264 -8.09855598 26.77763445 -9 29 C-9.99 28.67 -10.98 28.34 -12 28 C-11.72285156 27.49210937 -11.44570312 26.98421875 -11.16015625 26.4609375 C-8.9665317 22.2922702 -7.47586845 18.75868447 -7 14 C-6.34 14 -5.68 14 -5 14 C-3.98459888 9.89776415 -3.98459888 9.89776415 -5 6 C-4.34 6 -3.68 6 -3 6 C-2.67 4.68 -2.34 3.36 -2 2 C-1.34 2 -0.68 2 0 2 C0 1.34 0 0.68 0 0 Z " fill="#972B30" transform="translate(111,70)"/>
<path d="M0 0 C1.31218506 0.01981934 2.62437012 0.03963867 3.97631836 0.06005859 C5.02824623 0.06711319 5.02824623 0.06711319 6.10142517 0.0743103 C8.34067165 0.09565323 10.57754889 0.1522604 12.81616211 0.20849609 C14.32720754 0.22500318 15.8382782 0.23935127 17.34936523 0.25146484 C28.36029162 0.38681085 28.36029162 0.38681085 30.75366211 1.58349609 C30.75366211 4.22349609 30.75366211 6.86349609 30.75366211 9.58349609 C30.42366211 9.58349609 30.09366211 9.58349609 29.75366211 9.58349609 C29.25866211 6.61349609 29.25866211 6.61349609 28.75366211 3.58349609 C24.73289058 3.52506118 20.71222952 3.4897537 16.69116211 3.45849609 C15.55743164 3.44173828 14.42370117 3.42498047 13.25561523 3.40771484 C3.06058833 3.14819702 3.06058833 3.14819702 -5.68383789 7.70849609 C-6.19946289 8.32724609 -6.71508789 8.94599609 -7.24633789 9.58349609 C-6.34107741 4.6950895 -5.24415195 0.94258278 0 0 Z " fill="#CE2C2F" transform="translate(124.246337890625,36.41650390625)"/>
<path d="M0 0 C0.33 0.66 0.66 1.32 1 2 C0.22265625 4.1640625 0.22265625 4.1640625 -0.9375 6.625 C-1.31777344 7.44226563 -1.69804688 8.25953125 -2.08984375 9.1015625 C-2.39019531 9.72804688 -2.69054687 10.35453125 -3 11 C-3.66 11 -4.32 11 -5 11 C-5 12.32 -5 13.64 -5 15 C-5.66 15 -6.32 15 -7 15 C-7.12375 15.680625 -7.2475 16.36125 -7.375 17.0625 C-8.09100877 20.4277412 -9.02945125 23.70013425 -10 27 C-13 23.25 -13 23.25 -13 21 C-12.01 21 -11.02 21 -10 21 C-9.90203125 20.43152344 -9.8040625 19.86304688 -9.703125 19.27734375 C-8.63676081 13.77085969 -7.01715751 9.7268801 -4 5 C-3.34 5 -2.68 5 -2 5 C-2 3.68 -2 2.36 -2 1 C-1.34 0.67 -0.68 0.34 0 0 Z " fill="#B12E33" transform="translate(123,114)"/>
<path d="M0 0 C0.66 0 1.32 0 2 0 C1.93941406 0.62003906 1.87882812 1.24007812 1.81640625 1.87890625 C1.28648668 7.47974843 0.87769992 13.07018712 0.5625 18.6875 C0.22321621 24.05037277 -0.42899616 28.86805413 -2 34 C-2.66 34 -3.32 34 -4 34 C-3.38472483 22.56436841 -1.70575375 11.31445876 0 0 Z " fill="#972E35" transform="translate(65,112)"/>
<path d="M0 0 C-0.75 1.9375 -0.75 1.9375 -2 4 C-4.125 4.75 -4.125 4.75 -6 5 C-6 5.66 -6 6.32 -6 7 C-6.99 7.495 -6.99 7.495 -8 8 C-8.33 8.99 -8.66 9.98 -9 11 C-10.65438613 11.69658363 -12.32254318 12.36096883 -14 13 C-15.77277259 14.52007842 -15.77277259 14.52007842 -17 16 C-17.99 15.34 -18.98 14.68 -20 14 C-5.11546841 0 -5.11546841 0 0 0 Z " fill="#DF3233" transform="translate(51,23)"/>
<path d="M0 0 C0.66 0 1.32 0 2 0 C1.34 2.97 0.68 5.94 0 9 C-5.94 9 -11.88 9 -18 9 C-18.66 7.02 -19.32 5.04 -20 3 C-19.01 3.495 -19.01 3.495 -18 4 C-18 4.99 -18 5.98 -18 7 C-15.68690295 6.88658363 -13.37449815 6.75896193 -11.0625 6.625 C-9.77472656 6.55539063 -8.48695312 6.48578125 -7.16015625 6.4140625 C-6.11730469 6.27742187 -5.07445313 6.14078125 -4 6 C-3.67 5.34 -3.34 4.68 -3 4 C-2.01 4 -1.02 4 0 4 C0 2.68 0 1.36 0 0 Z " fill="#B92A2F" transform="translate(110,142)"/>
<path d="M0 0 C0.66 0 1.32 0 2 0 C2.33 1.65 2.66 3.3 3 5 C2.34 5 1.68 5 1 5 C1 6.32 1 7.64 1 9 C0.01 9 -0.98 9 -2 9 C-2.33 9.99 -2.66 10.98 -3 12 C-4.79133978 12.05391993 -6.58313899 12.09275571 -8.375 12.125 C-9.37273437 12.14820313 -10.37046875 12.17140625 -11.3984375 12.1953125 C-14 12 -14 12 -16 10 C-16 8.68 -16 7.36 -16 6 C-16.66 6 -17.32 6 -18 6 C-18 5.01 -18 4.02 -18 3 C-17.34 3 -16.68 3 -16 3 C-15.01 5.31 -14.02 7.62 -13 10 C-10.03 10 -7.06 10 -4 10 C-2.68 6.7 -1.36 3.4 0 0 Z " fill="#95272F" transform="translate(109,137)"/>
<path d="M0 0 C0.81637939 -0.00064453 1.63275879 -0.00128906 2.47387695 -0.00195312 C6.46113505 0.03425353 10.17192052 0.20503044 14.0625 1.1875 C14.0625 1.5175 14.0625 1.8475 14.0625 2.1875 C9.56258666 2.35656149 5.06255734 2.52231932 0.5625 2.6875 C-0.7059375 2.73519531 -1.974375 2.78289063 -3.28125 2.83203125 C-9.50436207 3.05891554 -15.71020099 3.25040201 -21.9375 3.1875 C-21.9375 2.8575 -21.9375 2.5275 -21.9375 2.1875 C-14.60898872 0.54919009 -7.48400878 -0.00574974 0 0 Z " fill="#CA393A" transform="translate(100.9375,8.8125)"/>
<path d="M0 0 C0.625 1.8125 0.625 1.8125 1 4 C0.01 5.485 0.01 5.485 -1 7 C-1.33 5.35 -1.66 3.7 -2 2 C-10.25 2 -18.5 2 -27 2 C-27 1.67 -27 1.34 -27 1 C-18.02243049 -0.3300103 -9.05168034 -0.08788039 0 0 Z " fill="#94353B" transform="translate(81,41)"/>
<path d="M0 0 C0.99 0.33 1.98 0.66 3 1 C2.30908835 2.83091588 1.61793885 4.66174227 0.92578125 6.4921875 C0.25742659 8.30266722 -0.38823881 10.12157879 -1.01953125 11.9453125 C-1.36371094 12.93273437 -1.70789063 13.92015625 -2.0625 14.9375 C-2.38347656 15.87464844 -2.70445313 16.81179687 -3.03515625 17.77734375 C-4 20 -4 20 -6 21 C-5.979375 19.88625 -5.95875 18.7725 -5.9375 17.625 C-5.73619282 14.16784079 -5.73619282 14.16784079 -7 12 C-5.68 12 -4.36 12 -3 12 C-2.814375 10.4221875 -2.814375 10.4221875 -2.625 8.8125 C-2.08859218 5.54041229 -1.36119965 2.99463924 0 0 Z " fill="#A13540" transform="translate(105,77)"/>
<path d="M0 0 C2 2 2 2 2.125 5.625 C2.08375 6.73875 2.0425 7.8525 2 9 C1.67 9 1.34 9 1 9 C0.896875 10.11375 0.79375 11.2275 0.6875 12.375 C0.3471875 14.169375 0.3471875 14.169375 0 16 C-0.99 16.66 -1.98 17.32 -3 18 C-3.21586845 12.06361776 -2.71249434 6.71248111 -1 1 C-0.67 0.67 -0.34 0.34 0 0 Z " fill="#BD2F37" transform="translate(37,107)"/>
<path d="M0 0 C-0.33 0.66 -0.66 1.32 -1 2 C-4.45043117 3.15014372 -7.35282355 4 -11 4 C-13.06343295 4.15468841 -15.12589054 4.32265725 -17.1875 4.5 C-18.81751953 4.63921875 -18.81751953 4.63921875 -20.48046875 4.78125 C-21.31191406 4.8534375 -22.14335938 4.925625 -23 5 C-15.95592975 0.30395317 -8.28893189 -0.47617268 0 0 Z " fill="#E43131" transform="translate(86,12)"/>
<path d="M0 0 C0.66 0 1.32 0 2 0 C1.68905914 2.54186606 1.37629464 5.08348598 1.0625 7.625 C0.97548828 8.33785156 0.88847656 9.05070312 0.79882812 9.78515625 C0.29217395 13.87591961 -0.2889043 17.93842635 -1 22 C-1.66 22 -2.32 22 -3 22 C-2.9278125 21.02417969 -2.855625 20.04835938 -2.78125 19.04296875 C-2.6884375 17.77066406 -2.595625 16.49835938 -2.5 15.1875 C-2.4071875 13.92292969 -2.314375 12.65835938 -2.21875 11.35546875 C-2.08085219 9.24021483 -2 7.11974408 -2 5 C-1.37400383 3.31763529 -0.71247732 1.6476038 0 0 Z " fill="#97262B" transform="translate(47,62)"/>
<path d="M0 0 C0.33 0.66 0.66 1.32 1 2 C1.66 2.33 2.32 2.66 3 3 C1.02 7.95 -0.96 12.9 -3 18 C-3.66 18 -4.32 18 -5 18 C-4.85892253 16.54119891 -4.71197585 15.08296449 -4.5625 13.625 C-4.48128906 12.81289063 -4.40007812 12.00078125 -4.31640625 11.1640625 C-4 9 -4 9 -3 7 C-2.34 7 -1.68 7 -1 7 C-1.020625 6.030625 -1.04125 5.06125 -1.0625 4.0625 C-1 1 -1 1 0 0 Z " fill="#9E2D34" transform="translate(121,41)"/>
<path d="M0 0 C0.33 0.66 0.66 1.32 1 2 C0.52949219 2.60328125 0.05898437 3.2065625 -0.42578125 3.828125 C-1.04839844 4.62734375 -1.67101562 5.4265625 -2.3125 6.25 C-2.92738281 7.03890625 -3.54226562 7.8278125 -4.17578125 8.640625 C-5.35488516 10.16563306 -6.50110131 11.71690406 -7.60546875 13.296875 C-8.06566406 13.85890625 -8.52585938 14.4209375 -9 15 C-9.66 15 -10.32 15 -11 15 C-11.33 15.66 -11.66 16.32 -12 17 C-12 14 -12 14 -10.5 12.3125 C-10.005 11.879375 -9.51 11.44625 -9 11 C-9.99 10.67 -10.98 10.34 -12 10 C-11.01 10 -10.02 10 -9 10 C-9 9.01 -9 8.02 -9 7 C-7.35 6.67 -5.7 6.34 -4 6 C-3.67 5.01 -3.34 4.02 -3 3 C-2.34 3 -1.68 3 -1 3 C-0.67 2.01 -0.34 1.02 0 0 Z " fill="#CF2B2C" transform="translate(182,145)"/>
<path d="M0 0 C0.33 0 0.66 0 1 0 C3.85888741 6.68688919 4.23852969 11.85234068 3 19 C0.10658401 16.10658401 0.24932095 12.83502649 -0.1875 8.9375 C-0.32961914 7.81891602 -0.32961914 7.81891602 -0.47460938 6.67773438 C-0.69917159 4.79038323 -0.85518871 2.89513911 -1 1 C-0.67 0.67 -0.34 0.34 0 0 Z " fill="#9B2930" transform="translate(160,100)"/>
<path d="M0 0 C0.66 0.33 1.32 0.66 2 1 C2.31241455 3.71446979 2.51336592 6.33909361 2.625 9.0625 C2.66367188 9.82111328 2.70234375 10.57972656 2.7421875 11.36132812 C2.83673562 13.24047195 2.91946756 15.12020336 3 17 C2.34 17 1.68 17 1 17 C-0.88341198 10.90660831 -1.0748291 6.27467799 0 0 Z " fill="#9A2C33" transform="translate(137,132)"/>
<path d="M0 0 C1.90608098 3.21182149 2.22266247 5.53882603 2.125 9.25 C2.10695313 10.14203125 2.08890625 11.0340625 2.0703125 11.953125 C2.03550781 12.96632813 2.03550781 12.96632813 2 14 C1.34 14 0.68 14 0 14 C-0.12375 14.804375 -0.2475 15.60875 -0.375 16.4375 C-0.684375 17.7059375 -0.684375 17.7059375 -1 19 C-1.66 19.33 -2.32 19.66 -3 20 C-2.51358785 13.15182898 -1.64006048 6.66957927 0 0 Z " fill="#BA333B" transform="translate(47,48)"/>
<path d="M0 0 C0.66 0 1.32 0 2 0 C1.48117215 5.18827855 0.84568781 10.34452749 0.0625 15.5 C-0.09089844 16.5209375 -0.24429688 17.541875 -0.40234375 18.59375 C-0.59957031 19.3878125 -0.79679687 20.181875 -1 21 C-1.66 21.33 -2.32 21.66 -3 22 C-3.33258097 15.40996957 -3.07096002 9.95944856 -0.65625 3.77734375 C0.11545803 2.00307249 0.11545803 2.00307249 0 0 Z " fill="#9C272C" transform="translate(43,86)"/>
<path d="M0 0 C0.66 0 1.32 0 2 0 C2.66 6.27 3.32 12.54 4 19 C3.34 19.33 2.68 19.66 2 20 C0.74158054 13.25846717 -0.26404456 6.86515862 0 0 Z " fill="#9B282C" transform="translate(132,94)"/>
<path d="M0 0 C0.33 0 0.66 0 1 0 C1.125 7.75 1.125 7.75 0 10 C-0.66 10 -1.32 10 -2 10 C-2.309375 11.093125 -2.61875 12.18625 -2.9375 13.3125 C-3.58337897 15.55407994 -4.2623117 17.7869351 -5 20 C-5.66 19.67 -6.32 19.34 -7 19 C-6.71125 18.484375 -6.4225 17.96875 -6.125 17.4375 C-4.15176253 13.16215214 -3.09636316 8.56817985 -2 4 C-1.34 4 -0.68 4 0 4 C0 2.68 0 1.36 0 0 Z " fill="#D22429" transform="translate(118,125)"/>
<path d="M0 0 C3.5399721 5.30995815 3.12943116 11.78730425 3 18 C2.34 18 1.68 18 1 18 C0.6392073 15.18820232 0.2860722 12.37581501 -0.0625 9.5625 C-0.2181543 8.35883789 -0.2181543 8.35883789 -0.37695312 7.13085938 C-0.62644343 5.09192132 -0.81780318 3.04604939 -1 1 C-0.67 0.67 -0.34 0.34 0 0 Z " fill="#9E252B" transform="translate(157,80)"/>
<path d="M0 0 C2.64 0 5.28 0 8 0 C7.01 0.495 7.01 0.495 6 1 C6 1.66 6 2.32 6 3 C4.25 4.5078125 4.25 4.5078125 2 6.125 C1.2575 6.66382813 0.515 7.20265625 -0.25 7.7578125 C-0.8275 8.16773438 -1.405 8.57765625 -2 9 C-2.33 8.34 -2.66 7.68 -3 7 C-2.34 7 -1.68 7 -1 7 C-0.67 4.69 -0.34 2.38 0 0 Z " fill="#D12323" transform="translate(162,162)"/>
<path d="M0 0 C0.66 0.99 1.32 1.98 2 3 C1.67 3.66 1.34 4.32 1 5 C0.34 5 -0.32 5 -1 5 C-0.95875 6.0725 -0.9175 7.145 -0.875 8.25 C-0.9885825 11.65747485 -1.21273364 13.20739631 -3 16 C-3.66 16 -4.32 16 -5 16 C-5.33 16.66 -5.66 17.32 -6 18 C-5.50356293 12.29097373 -4.20216829 4.20216829 0 0 Z " fill="#B63238" transform="translate(119,43)"/>
<path d="M0 0 C1.39211215 4.17633644 -0.0464421 5.78960515 -1.9375 9.6875 C-2.50339844 10.86699219 -3.06929687 12.04648438 -3.65234375 13.26171875 C-4.09707031 14.16535156 -4.54179687 15.06898438 -5 16 C-6.07165569 12.78503292 -5.94376088 11.60203926 -5.25 8.375 C-5.09015625 7.57835937 -4.9303125 6.78171875 -4.765625 5.9609375 C-4.51296875 5.31382812 -4.2603125 4.66671875 -4 4 C-3.01 3.67 -2.02 3.34 -1 3 C-0.67 2.01 -0.34 1.02 0 0 Z " fill="#CA2625" transform="translate(192,124)"/>
<path d="M0 0 C0.33 0 0.66 0 1 0 C1.06058594 0.9178125 1.12117187 1.835625 1.18359375 2.78125 C1.62311242 9.218508 2.10530999 15.60935705 3 22 C1.68 22 0.36 22 -1 22 C-0.67 14.74 -0.34 7.48 0 0 Z " fill="#B92E34" transform="translate(155,46)"/>
<path d="M0 0 C0.66 0 1.32 0 2 0 C2.79953138 3.28696233 3.09658936 4.71023192 2 8 C2.66 8 3.32 8 4 8 C4.66 9.98 5.32 11.96 6 14 C5.01 14 4.02 14 3 14 C1.23537317 10.91190305 1 9.76687864 1 6 C0.34 5.67 -0.32 5.34 -1 5 C-0.67 3.35 -0.34 1.7 0 0 Z " fill="#A02C32" transform="translate(89,135)"/>
<path d="M0 0 C2.45605371 2.55274874 2.98802939 3.85890643 3.29296875 7.453125 C3.25816406 8.70609375 3.22335938 9.9590625 3.1875 11.25 C3.16042969 12.51328125 3.13335937 13.7765625 3.10546875 15.078125 C3.07066406 16.04234375 3.03585938 17.0065625 3 18 C2.67 18 2.34 18 2 18 C0.59545452 11.88019467 -0.23268915 6.28260706 0 0 Z " fill="#D52828" transform="translate(156,52)"/>
<path d="M0 0 C2.40972511 2.40972511 3.50946607 4.95412632 5 8 C5.33 8.33 5.66 8.66 6 9 C6.04092937 11.33297433 6.04241723 13.66705225 6 16 C3.09973937 14.54986969 2.95045604 12.69479373 1.875 9.6875 C1.52179688 8.72199219 1.16859375 7.75648437 0.8046875 6.76171875 C0 4 0 4 0 0 Z " fill="#D82D2F" transform="translate(83,41)"/>
<path d="M0 0 C1.25 1.5625 1.25 1.5625 2 4 C1.06202417 5.77891968 0.11151553 7.55620974 -0.97265625 9.25 C-2.25647282 11.43688145 -2.69656748 13.49668168 -3 16 C-3.66 16 -4.32 16 -5 16 C-3.90301833 10.30860098 -2.45946923 5.25432063 0 0 Z " fill="#D93839" transform="translate(12,64)"/>
<path d="M0 0 C0.33 0 0.66 0 1 0 C0.50130596 5.36891879 -0.02227532 10.69235173 -1 16 C-3.46639251 12.30041123 -3.56790227 9.29267302 -3 5 C-1.5625 2 -1.5625 2 0 0 Z " fill="#E42930" transform="translate(43,64)"/>
<path d="M0 0 C0.625 1.8125 0.625 1.8125 1 4 C0.01 5.485 0.01 5.485 -1 7 C-1.66 7 -2.32 7 -3 7 C-3.33 8.98 -3.66 10.96 -4 13 C-4.99 13.33 -5.98 13.66 -7 14 C-5.53967505 8.68972746 -3.01679014 4.53669968 0 0 Z " fill="#D8363A" transform="translate(20,50)"/>
<path d="M0 0 C0 1.32 0 2.64 0 4 C-1.8125 5.8125 -1.8125 5.8125 -4 7 C-4.99 6.67 -5.98 6.34 -7 6 C-5.52522876 2.59668175 -4.14385429 0 0 0 Z " fill="#DE1B1A" transform="translate(181,144)"/>
<path d="M0 0 C0.66 0 1.32 0 2 0 C3.49821059 3.37097383 4 5.20442119 4 9 C2.35 8.67 0.7 8.34 -1 8 C-0.67 5.36 -0.34 2.72 0 0 Z " fill="#A03641" transform="translate(70,92)"/>
<path d="M0 0 C3.50926856 2.33951237 3.57275081 3.13178179 4.5625 7.0625 C5.20032154 9.71901316 5.20032154 9.71901316 6 12 C6.66 12.33 7.32 12.66 8 13 C8 13.66 8 14.32 8 15 C6.68 15 5.36 15 4 15 C3.79503906 14.16855469 3.59007813 13.33710937 3.37890625 12.48046875 C3.10949219 11.39378906 2.84007813 10.30710937 2.5625 9.1875 C2.29566406 8.10855469 2.02882813 7.02960938 1.75390625 5.91796875 C1.23922588 3.9259157 0.65062825 1.95188476 0 0 Z " fill="#BD303A" transform="translate(94,74)"/>
<path d="M0 0 C2.65613616 1.32806808 2.93232069 2.22403378 4 5 C4.45362392 7.66567762 4.7305884 10.30588399 5 13 C2.4500131 11.72500655 2.34023585 10.81508648 1.375 8.1875 C0.98441406 7.15689453 0.98441406 7.15689453 0.5859375 6.10546875 C0 4 0 4 0 0 Z " fill="#CA2A2F" transform="translate(76,111)"/>
<path d="M0 0 C0.99 0.33 1.98 0.66 3 1 C1.95125002 3.62187494 1.35068687 4.79371361 -1.125 6.25 C-1.74375 6.4975 -2.3625 6.745 -3 7 C-3.33 6.01 -3.66 5.02 -4 4 C-2.68 3.34 -1.36 2.68 0 2 C0 1.34 0 0.68 0 0 Z " fill="#F62824" transform="translate(39,33)"/>
<path d="M0 0 C2.32528287 2.32528287 2.29511025 2.84665898 2.3125 6 C2.33763672 7.051875 2.33763672 7.051875 2.36328125 8.125 C2.18345703 9.053125 2.18345703 9.053125 2 10 C1.01 10.66 0.02 11.32 -1 12 C-1.02687279 10.18757948 -1.04633715 8.37504767 -1.0625 6.5625 C-1.07410156 5.55316406 -1.08570313 4.54382813 -1.09765625 3.50390625 C-1 1 -1 1 0 0 Z " fill="#AF2D38" transform="translate(160,89)"/>
<path d="M0 0 C1.32 0 2.64 0 4 0 C4.93423645 3.01031744 5.04449911 3.86650268 4 7 C3.01 6.67 2.02 6.34 1 6 C0.67 4.02 0.34 2.04 0 0 Z " fill="#DC2728" transform="translate(98,80)"/>
<path d="M0 0 C0.99 0.33 1.98 0.66 3 1 C2.01 3.64 1.02 6.28 0 9 C-0.99 9 -1.98 9 -3 9 C-2.01 6.03 -1.02 3.06 0 0 Z " fill="#AF333C" transform="translate(105,77)"/>
<path d="M0 0 C3.375 -0.125 3.375 -0.125 7 0 C7.66 0.66 8.32 1.32 9 2 C4.125 4 4.125 4 3 4 C1.4375 2.5625 1.4375 2.5625 0 1 C0 0.67 0 0.34 0 0 Z " fill="#F22929" transform="translate(87,11)"/>
<path d="M0 0 C0.66 0 1.32 0 2 0 C4.03435531 3.72965139 5 5.66905042 5 10 C4.34 10 3.68 10 3 10 C2.01 6.7 1.02 3.4 0 0 Z " fill="#962B30" transform="translate(95,86)"/>
<path d="M0 0 C0.99 0.33 1.98 0.66 3 1 C2.49396008 3.16874252 2.00016187 4.99967627 1 7 C0.34 7 -0.32 7 -1 7 C-1.04254356 5.00045254 -1.04080783 2.99958364 -1 1 C-0.67 0.67 -0.34 0.34 0 0 Z " fill="#E11A19" transform="translate(185,129)"/>
<path d="M0 0 C0.66 0 1.32 0 2 0 C1.67 2.64 1.34 5.28 1 8 C-0.32 8 -1.64 8 -3 8 C-2.690625 7.236875 -2.38125 6.47375 -2.0625 5.6875 C-1.32106407 3.81210323 -0.63771783 1.91315348 0 0 Z " fill="#9D2F33" transform="translate(47,62)"/>
<path d="M0 0 C2.04119788 1.61594832 4.04072937 3.2856382 6 5 C6 5.66 6 6.32 6 7 C5.01 7.33 4.02 7.66 3 8 C3 7.34 3 6.68 3 6 C2.34 6 1.68 6 1 6 C0.67 4.02 0.34 2.04 0 0 Z " fill="#D92A28" transform="translate(171,39)"/>
<path d="M0 0 C0.33 0 0.66 0 1 0 C1 2.31 1 4.62 1 7 C-0.32 6.67 -1.64 6.34 -3 6 C-2.01 4.02 -1.02 2.04 0 0 Z " fill="#97262B" transform="translate(131,86)"/>
<path d="M0 0 C1.32 0 2.64 0 4 0 C4.99 2.31 5.98 4.62 7 7 C3.00003714 5.66667905 2.16217663 3.5042173 0 0 Z " fill="#D82F2D" transform="translate(26,156)"/>
<path d="M0 0 C0.33 0.66 0.66 1.32 1 2 C0.22265625 3.9453125 0.22265625 3.9453125 -0.9375 6.125 C-1.31777344 6.84945312 -1.69804687 7.57390625 -2.08984375 8.3203125 C-2.39019531 8.87460938 -2.69054687 9.42890625 -3 10 C-4.04449911 6.86650268 -3.93423645 6.01031744 -3 3 C-2.34 3 -1.68 3 -1 3 C-0.67 2.01 -0.34 1.02 0 0 Z " fill="#C52C2E" transform="translate(190,130)"/>
<path d="M0 0 C0.33 0 0.66 0 1 0 C1.33 2.64 1.66 5.28 2 8 C1.01 8 0.02 8 -1 8 C-1.04241723 5.66705225 -1.04092937 3.33297433 -1 1 C-0.67 0.67 -0.34 0.34 0 0 Z " fill="#A4383C" transform="translate(49,44)"/>
<path d="M0 0 C0 1.65 0 3.3 0 5 C-0.99 5 -1.98 5 -3 5 C-3.33 5.66 -3.66 6.32 -4 7 C-4.66 7 -5.32 7 -6 7 C-2.86206897 0 -2.86206897 0 0 0 Z " fill="#DA383B" transform="translate(31,38)"/>
</svg>
